<svg width="19" height="18" viewBox="0 0 19 18" fill="none" xmlns="http://www.w3.org/2000/svg">
<path d="M1.43287 7.37572H9.11012C10.0389 7.38242 10.9376 7.04585 11.6335 6.4306C12.3294 5.81535 12.7736 4.96475 12.8809 4.04212C12.9843 3.00591 12.6409 1.97466 11.9367 1.20739C11.2376 0.439832 10.248 0.0016265 9.20979 -0.00012207H7.13818C6.80496 -0.00012207 6.49707 0.177735 6.33044 0.466232C6.16383 0.754849 6.16383 1.11043 6.33044 1.39904C6.49705 1.68753 6.80496 1.8654 7.13818 1.8654H9.20979C9.73477 1.86607 10.2341 2.09307 10.58 2.48802C10.9258 2.88299 11.0849 3.40784 11.0164 3.92843C10.9477 4.37507 10.7192 4.78156 10.3732 5.07231C10.0274 5.3632 9.58775 5.51843 9.136 5.50945H1.4327C1.09948 5.50945 0.791592 5.68717 0.624964 5.9758C0.458335 6.26443 0.458356 6.61986 0.624964 6.90848C0.791571 7.19709 1.09948 7.37483 1.4327 7.37483L1.43287 7.37572Z" fill="white"/>
<path d="M18.4835 13.5293C18.3762 12.6067 17.9321 11.7562 17.2364 11.1411C16.5405 10.5258 15.6421 10.1891 14.7133 10.1957H8.30012C7.96691 10.1957 7.65902 10.3734 7.49239 10.6621C7.32578 10.9507 7.32578 11.3063 7.49239 11.5947C7.659 11.8834 7.9669 12.0611 8.30012 12.0611H14.7386C15.1904 12.0521 15.6301 12.2075 15.9759 12.4982C16.3218 12.7891 16.5503 13.1956 16.619 13.6421C16.6876 14.1627 16.5286 14.6875 16.1826 15.0825C15.8367 15.4776 15.3374 15.7045 14.8124 15.7053H12.74C12.4068 15.7053 12.0989 15.883 11.9323 16.1716C11.7657 16.4601 11.7657 16.8157 11.9323 17.1043C12.0989 17.3929 12.4068 17.5707 12.74 17.5707H14.8115C15.8501 17.5697 16.8405 17.1318 17.54 16.3641C18.2439 15.5967 18.5871 14.5655 18.4833 13.5294L18.4835 13.5293Z" fill="white"/>
<path d="M6.24491 11.1293C6.24478 10.8818 6.14647 10.6446 5.97169 10.4696C5.79678 10.2945 5.55958 10.196 5.31224 10.1957H1.43282C1.0996 10.1957 0.791707 10.3734 0.625078 10.6621C0.45847 10.9507 0.45847 11.3063 0.625078 11.5947C0.791686 11.8834 1.09959 12.0611 1.43282 12.0611H5.31224C5.55934 12.0608 5.79625 11.9625 5.97104 11.7879C6.14583 11.6132 6.24439 11.3764 6.24493 11.1294L6.24491 11.1293Z" fill="white"/>
<path d="M13.2052 7.97815C13.2848 7.97815 13.3611 7.94654 13.4173 7.89029L14.0495 7.25813H14.0494C14.9182 7.43036 15.8143 7.14134 16.4188 6.49407C17.0234 5.84679 17.2505 4.93314 17.0194 4.07812C16.9918 3.9742 16.9106 3.89303 16.8067 3.86544C15.9517 3.63442 15.038 3.86156 14.3907 4.46599C13.7435 5.07056 13.4544 5.96668 13.6267 6.83545L12.9931 7.46573C12.9074 7.55157 12.8817 7.68055 12.9281 7.79265C12.9746 7.90474 13.0839 7.97774 13.2052 7.97787L13.2052 7.97815Z" fill="white"/>
<path d="M6.7314 13.3243L6.09923 12.6921C5.98151 12.5784 5.79441 12.5802 5.67868 12.6959C5.56295 12.8116 5.56135 12.9987 5.67506 13.1164L6.30682 13.7486V13.7485C6.14409 14.5851 6.40579 15.4479 7.00581 16.0531C7.62978 16.6706 9.02453 17.1949 9.6998 16.5031H9.69993C9.93069 15.6484 9.70368 14.7352 9.09965 14.088C8.4955 13.4407 7.59991 13.1516 6.73138 13.3231L6.7314 13.3243Z" fill="white"/>
</svg>
