<svg width="16" height="17" viewBox="0 0 16 17" fill="none" xmlns="http://www.w3.org/2000/svg">
<path d="M3.40778 5.00996C4.42419 4.59867 4.96792 3.46912 4.55502 2.44871C4.14332 1.43231 1.37944 -0.000183105 1.37944 -0.000183105C1.37944 -0.000183105 0.387412 2.95295 0.798841 3.96908C1.21188 4.98963 2.38843 5.42262 3.40778 5.00982V5.00996Z" fill="white"/>
<path d="M7.66469 11.0288C7.66469 11.0288 6.64442 13.9035 7.05571 14.9195C7.46848 15.9389 8.64221 16.3742 9.6617 15.9614C10.681 15.5488 11.2213 14.4196 10.8087 13.4003C10.3972 12.3839 7.66469 11.0287 7.66469 11.0287V11.0288Z" fill="white"/>
<path d="M1.28 9.87955C1.28 9.87955 0.160644 12.9759 0.603785 14.0706C1.04802 15.168 2.33747 15.6473 3.43502 15.2028C4.52962 14.7597 5.04271 13.5511 4.59833 12.4534C4.15488 11.359 1.28 9.87962 1.28 9.87962V9.87955Z" fill="white"/>
<path d="M7.64069 8.9415C8.26561 8.68851 8.51391 7.95177 8.29212 7.40399C8.03792 6.77601 6.43669 5.96759 6.43669 5.96759C6.43669 5.96759 5.84808 7.66261 6.10228 8.29086C6.32406 8.83837 7.01393 9.19528 7.6407 8.9415H7.64069Z" fill="white"/>
<path d="M13.7748 8.68125C13.5206 8.05327 11.9194 7.24484 11.9194 7.24484C11.9194 7.24484 11.3307 8.93986 11.5849 9.56812C11.8067 10.1158 12.4967 10.4727 13.1233 10.219C13.7484 9.96574 13.9968 9.229 13.7748 8.68121L13.7748 8.68125Z" fill="white"/>
<path d="M12.5525 2.63634C12.141 1.62008 9.377 0.187592 9.377 0.187592C9.377 0.187592 8.38497 3.14071 8.7964 4.15684C9.20958 5.17738 10.3861 5.6101 11.4054 5.19747C12.4215 4.78632 12.9655 3.65702 12.5525 2.63624V2.63634Z" fill="white"/>
<path d="M15.3018 14.7413C15.0476 14.1133 13.4464 13.3049 13.4464 13.3049C13.4464 13.3049 12.8578 14.9999 13.112 15.6282C13.3338 16.1758 14.0236 16.5327 14.6504 16.2788C15.2752 16.0258 15.5236 15.2891 15.3018 14.7413H15.3018Z" fill="white"/>
</svg>
